<?xml version="1.0" standalone="no"?>
<!DOCTYPE svg PUBLIC "-//W3C//DTD SVG 20010904//EN"
 "http://www.w3.org/TR/2001/REC-SVG-20010904/DTD/svg10.dtd">
<svg version="1.0" xmlns="http://www.w3.org/2000/svg"
 width="600.000000pt" height="600.000000pt" viewBox="0 0 600.000000 600.000000"
 preserveAspectRatio="xMidYMid meet">
<g transform="translate(0.000000,600.000000) scale(0.100000,-0.100000)"
fill="#000000" stroke="none">
<path d="M2986 4357 c-10 -14 -54 -54 -99 -89 -120 -92 -165 -136 -211 -205
-36 -53 -44 -60 -60 -51 -43 24 -93 27 -211 12 -115 -15 -242 -15 -276 0 -15
6 -15 2 -6 -38 8 -35 6 -63 -7 -128 -22 -106 -32 -272 -18 -320 10 -36 9 -37
-28 -62 -57 -38 -140 -122 -202 -206 -31 -41 -73 -92 -93 -114 -33 -33 -36
-40 -22 -47 41 -24 83 -69 137 -149 60 -90 146 -176 184 -186 21 -5 22 -9 18
-87 -3 -56 3 -119 17 -199 23 -130 26 -184 11 -223 -9 -25 -9 -26 12 -18 35
12 159 10 294 -6 109 -13 126 -13 170 2 l49 16 20 -27 c65 -88 110 -134 185
-189 47 -34 100 -76 119 -93 2z9 -27 36 -29 43 -16 5 9 44 39 86 68 90 61 165
129 222 203 l40 52 47 -15 c42 -14 60 -14 198 3 139 17 217 17 255 1 13 -5 15
8 15 86 0 51 8 140 19 197 13 70 17 126 13 171 -5 65 -5 68 17 74 48 12 118
79 192 186 41 60 89 119 107 131 18 13 34 24 36 26 2 1 -8 12 -22 23 -14 12
-53 58 -86 103 -63 88 -190 216 -239 241 l-30 15 15 63 c16 68 13 128 -13 260
-9 43 -14 107 -12 143 2 55 1 64 -12 58 -32 -14 -181 -14 -290 1 -107 14 -166
12 -198 -7 -5 -4 -25 17 -44 46 -46 69 -105 127 -211 207 -47 36 -92 76 -100
89 l-15 24 -16 -26z m55 -68 c13 -11 18 -17 10 -13 -9 5 -12 3 -7 -5 4 -6 11
-9 15 -7 4 3 20 -6 36 -20 15 -13 34 -24 42 -24 7 0 13 -5 13 -11 0 -5 -5 -7
-12 -3 -7 4 -8 3 -4 -4 4 -6 13 -9 20 -6 16 6 152 -141 150 -162 -1 -9 0 -13
3 -10 3 3 15 -4 27 -15 15 -15 29 -19 51 -15 66 13 107 13 182 -1 43 -8 119
-16 168 -18 50 -2 92 -4 95 -5 3 0 6 -16 7 -35 3 -56 4 -67 15 -125 5 -30 10
-63 10 -72 -1 -10 4 -18 10 -18 6 0 6 -6 -2 -15 -7 -8 -9 -15 -4 -15 5 0 9
-24 9 -54 0 -30 -3 -52 -6 -50 -14 8 -15 -71 -2 -84 17 -17 17 -27 0 -16 -16
11 24 -23 104 -89 33 -27 57 -52 53 -58 -3 -5 -2 -8 3 -7 5 2 20 -8 33 -21 14
-13 20 -21 14 -18 -6 3 -11 0 -11 -7 0 -8 6 -12 12 -10 14 6 48 -42 40 -56 -3
-5 0 -12 6 -16 8 -4 9 -3 5 4 -4 7 -3 12 3 12 5 0 12 -9 16 -19 3 -10 18 -31
33 -47 15 -15 20 -24 12 -19 -13 8 -13 7 -1 -8 12 -15 11 -17 -5 -18 -11 0
-14 -3 -7 -5 7 -3 -3 -19 -25 -40 -20 -20 -30 -32 -22 -28 10 5 8 0 -4 -15
-11 -12 -26 -19 -33 -16 -8 3 -11 0 -8 -6 9 -13 -22 -79 -41 -86 -8 -3 -12 -8
-9 -13 2 -4 -7 -13 -20 -20 -14 -7 -27 -21 -31 -32 -5 -16 -16 -22 -36 -19 -5
0 -8 -3 -8 -8 0 -5 -7 -12 -16 -15 -8 -3 -13 -2 -10 2 3 5 -1 9 -8 9 -8 0 -11
-8 -8 -19 2 -10 -2 -20 -12 -24 -14 -5 -15 -16 -10 -70 7 -69 -12 -217 -27
-208 -5 3 -9 0 -9 -5 0 -6 4 -11 9 -11 5 0 5 -18 -1 -42 -9 -38 -12 -64 -17
-131 0 -10 -4 -16 -8 -14 -8 5 -173 -8 -210 -17 -42 -9 -158 -10 -177 -1 -14
6 -17 5 -11 -4 6 -10 3 -11 -13 -2 -11 6 -36 9 -54 7 -18 -3 -37 -5 -41 -5 -5
-1 -6 -5 -3 -10 4 -5 2 -11 -3 -13 -5 -1 -11 -10 -13 -18 -2 -8 -11 -21 -21
-28 -9 -7 -14 -19 -11 -25 4 -7 4 -9 0 -5 -5 4 -18 -5 -30 -19 -22 -25 -46
-25 -46 -1 0 7 5 6 14 -1 12 -10 13 -8 9 8 -4 14 1 23 13 28 25 9 54 40 46 49
-4 4 -2 4 5 1 12 -8 29 65 19 82 -3 5 1 12 10 15 10 4 13 2 7 -7 -4 -6 5 -4
20 6 33 22 57 22 57 0 0 -9 3 -13 6 -10 4 3 14 2 23 -3 29 -15 236 -12 315 6
32 7 59 28 49 38 -4 3 1 6 10 6 10 0 14 5 11 15 -4 8 -1 15 6 15 6 0 8 5 5 10
-4 6 1 56 10 113 20 126 18 203 -7 239 -21 30 -23 49 -5 42 8 -3 13 3 13 15 0
11 -4 17 -8 15 -10 -6 -11 10 -1 19 3 4 12 2 20 -4 7 -6 13 -8 13 -4 0 4 7 1
16 -6 14 -11 18 -11 28 1 6 8 18 16 26 18 8 2 20 10 26 18 6 7 17 14 25 14 11
0 11 2 -1 10 -13 9 -13 10 0 10 8 0 25 16 38 36 13 20 27 32 34 28 7 -4 8 -3
4 5 -4 6 1 27 12 45 11 18 23 48 27 65 4 17 10 31 13 31 4 0 8 14 8 30 1 17
-3 30 -8 30 -5 0 -7 4 -4 9 3 5 -5 16 -19 25 -14 9 -25 22 -25 29 0 8 4 7 10
-3 5 -8 10 -11 10 -6 0 5 -21 29 -47 54 -27 25 -47 49 -45 54 1 5 -2 7 -8 3
-5 -3 -10 -1 -10 5 0 6 -4 9 -9 5 -5 -3 -12 4 -16 15 -3 11 -11 20 -16 20 -6
0 -7 4 -4 10 3 6 -1 7 -9 4 -11 -4 -16 0 -16 12 0 16 -2 17 -10 4 -9 -14 -14
-7 -11 13 1 5 -3 6 -9 2 -6 -3 -8 -10 -5 -15 3 -5 -4 -8 -15 -7 -10 1 -22 7
-25 15 -2 7 0 10 5 7 6 -3 10 -1 10 4 0 6 -4 11 -9 11 -4 0 -7 12 -5 26 2 19
-1 24 -12 20 -11 -4 -9 3 6 24 12 17 26 30 31 30 6 0 7 6 3 12 -5 7 -9 46 -11
88 -3 80 -6 105 -17 131 -4 9 -6 20 -5 25 1 5 0 12 -1 17 -1 4 -3 10 -4 15 -1
4 -5 21 -9 37 -10 41 -34 54 -125 65 -42 6 -85 13 -96 16 -10 3 -16 2 -13 -3
3 -4 -27 -7 -67 -5 -68 4 -75 2 -100 -22 -25 -26 -28 -26 -59 -13 -17 8 -40
17 -49 21 -12 3 -15 11 -11 22 5 13 3 15 -8 9 -11 -6 -11 -5 -2 5 12 14 -2 70
-18 70 -5 0 -9 6 -9 14 0 8 -11 23 -25 34 -13 11 -21 22 -17 26 3 4 -2 4 -13
0 -14 -6 -17 -4 -12 9 6 17 -8 31 -33 32 -8 0 -14 8 -13 18 0 10 -2 16 -5 13
-3 -3 -12 0 -20 7 -13 10 -15 9 -8 -3 4 -8 0 -6 -8 4 -9 11 -16 17 -16 13 0
-4 -10 2 -22 13 -18 16 -31 20 -58 15 -19 -3 -40 -6 -47 -7 -7 -1 -10 -4 -8
-8 2 -3 -5 -14 -16 -23 -10 -9 -19 -14 -19 -11 0 3 -12 -8 -26 -25 -14 -17
-30 -28 -35 -25 -5 3 -8 0 -7 -8 2 -8 -4 -12 -15 -10 -10 2 -16 -3 -15 -10 2
-7 -3 -12 -9 -11 -7 2 -12 0 -11 -5 5 -15 -30 -54 -43 -47 -8 5 -10 4 -5 -4 4
-6 3 -17 -2 -24 -6 -7 -9 -29 -8 -50 2 -20 1 -35 -2 -32 -2 2 -14 -1 -26 -7
-11 -7 -28 -13 -36 -14 -8 -2 -19 -10 -26 -18 -9 -13 -13 -12 -25 10 -18 34
-46 44 -127 44 -93 0 -246 -19 -250 -30 -2 -6 -8 -8 -13 -4 -5 3 -12 -9 -15
-26 -4 -17 -11 -33 -15 -36 -5 -3 -7 -10 -4 -15 4 -5 3 -15 -2 -21 -4 -7 -8
-22 -8 -33 0 -11 -6 -19 -13 -17 -8 1 -11 -2 -7 -8 3 -6 11 -7 17 -4 7 4 7 0
0 -12 -13 -25 -13 -205 0 -221 6 -7 13 -11 17 -9 6 4 6 -40 1 -54 -1 -3 -1
-14 -1 -26 1 -13 -4 -21 -14 -21 -8 0 -15 3 -15 7 0 3 -11 6 -24 6 -14 0 -24
-5 -23 -10 1 -6 -8 -10 -21 -10 -17 1 -20 -1 -11 -12 8 -10 5 -15 -14 -19 -13
-4 -42 -25 -63 -48 -22 -22 -33 -38 -26 -33 19 12 14 1 -10 -20 -22 -19 -23
-19 -8 1 14 19 14 19 -3 6 -9 -8 -15 -16 -13 -19 3 -2 -6 -19 -19 -36 -13 -17
-25 -38 -27 -46 -2 -8 -7 -18 -13 -22 -6 -5 -6 -14 2 -25 13 -18 47 -94 47
-103 0 -5 10 -19 34 -46 12 -12 12 -18 1 -32 -10 -13 -10 -14 0 -6 10 9 19 6
38 -12 14 -12 22 -28 18 -34 -3 -6 -3 -9 2 -8 4 1 23 -7 40 -18 25 -16 30 -23
21 -32 -7 -7 -8 -12 -2 -12 5 0 2 -5 -6 -11 -13 -9 -13 -10 0 -6 8 2 14 9 13
15 -3 14 25 24 33 11 4 -6 11 -6 21 2 12 10 16 10 24 -2 7 -12 9 -12 9 0 0 8
3 12 6 9 3 -4 0 -16 -6 -28 -8 -15 -8 -20 -1 -16 6 4 11 0 11 -8 0 -9 6 -16
13 -17 6 0 -4 -7 -23 -15 -23 -9 -27 -13 -10 -10 23 5 24 4 6 -9 -16 -13 -18
-24 -12 -127 4 -62 8 -129 10 -148 2 -19 5 -41 5 -48 1 -7 5 -11 10 -8 5 3 9
-5 9 -19 0 -14 11 -34 28 -48 32 -28 98 -38 244 -37 105 0 131 4 156 19 19 12
19 12 -1 6 -19 -6 -19 -5 -2 12 15 15 19 16 26 4 5 -8 14 -10 22 -5 12 6 12 5
1 -8 -11 -13 -10 -16 5 -14 13 1 18 -6 17 -26 0 -15 4 -24 8 -22 5 3 13 -8 19
-25 6 -16 22 -37 36 -46 15 -10 22 -22 19 -31 -4 -9 -2 -12 5 -8 6 3 25 -7 42
-24 18 -16 46 -37 62 -45 17 -8 41 -27 54 -41 13 -14 28 -23 33 -20 5 3 15 0
23 -6 11 -9 15 -9 15 -1 0 6 12 11 26 11 17 0 23 4 18 13 -5 7 0 6 11 -3 17
-13 18 -13 13 1 -5 13 -2 16 15 12 18 -4 19 -3 7 6 -10 7 -11 11 -3 11 7 0 28
14 47 31 33 29 56 32 56 7 0 -6 -10 -8 -21 -5 -16 4 -19 3 -11 -5 14 -14 -95
-90 -121 -84 -15 4 -16 2 -6 -10 10 -12 7 -20 -4 -11 -2 1 -11 -4 -20 -11 -17
-14 -57 -8 -57 9 0 5 -7 9 -15 9 -8 0 -22 11 -31 25 -9 14 -20 23 -24 20 -5
-3 -11 -1 -15 5 -4 6 -11 7 -17 4 -7 -4 -8 -2 -4 4 4 6 -6 18 -24 27 -17 9
-29 19 -26 23 2 4 -11 18 -29 32 -35 27 -72 75 -68 90 2 5 -6 14 -17 20 -11 6
-20 8 -20 4 0 -3 -7 -1 -15 6 -8 7 -13 16 -10 20 3 5 -8 2 -24 -6 -32 -16
-179 -25 -187 -12 -3 5 -11 8 -17 7 -7 -2 -39 1 -72 6 -33 5 -87 8 -121 7 -42
-1 -61 2 -61 11 0 6 -4 44 -8 82 -4 39 -7 81 -8 95 -1 14 -5 28 -10 31 -4 3
-10 61 -12 127 -5 119 -16 162 -42 162 -7 0 -16 6 -20 13 -4 7 -24 23 -43 35
-19 12 -32 22 -28 22 8 0 -11 26 -47 65 -11 12 -29 33 -40 46 l-20 24 20 -15
c20 -14 -8 21 -73 91 -31 33 -33 39 -21 60 6 13 15 26 18 29 4 3 14 18 24 33
10 16 23 25 29 21 8 -5 9 -2 5 9 -3 10 -3 17 1 17 11 0 43 56 37 64 -3 3 -2 4
2 1 10 -8 33 16 26 28 -3 5 -1 7 5 3 15 -9 66 40 56 56 -4 7 -4 10 1 6 4 -4
25 6 45 22 21 17 43 30 49 30 6 0 11 7 11 15 0 8 5 15 11 15 7 0 9 10 4 27 -3
15 -8 66 -10 114 -4 80 0 113 21 163 5 13 4 17 -4 13 -7 -5 -8 2 -2 25 5 18
11 57 15 86 l7 52 49 0 c27 0 93 7 146 16 118 19 198 20 237 5 33 -13 87 2 83
23 -1 6 4 10 11 8 8 -1 11 2 7 7 -3 6 3 19 14 30 11 11 17 21 15 24 -3 2 18
24 47 48 28 24 64 56 80 72 30 27 56 37 43 15 -4 -7 -3 -8 4 -4 6 4 9 13 6 21
-4 8 6 19 23 29 16 8 35 22 42 30 18 22 44 20 72 -5z m145 -220 c38 -42 64
-80 64 -95 0 -6 -56 -34 -125 -63 l-126 -53 -82 34 c-45 19 -103 43 -129 52
-27 10 -48 21 -48 25 0 30 112 142 218 218 l45 32 76 -59 c42 -32 90 -73 107
-91z m-600 -161 c4 -4 -9 -43 -28 -85 -20 -43 -41 -96 -48 -118 -11 -39 -14
-41 -157 -107 -80 -37 -149 -65 -154 -62 -16 9 -10 125 12 244 11 63 22 116
23 117 1 2 40 7 87 12 95 10 254 10 265 -1z m1133 -6 l44 -7 19 -95 c19 -92
29 -252 17 -264 -6 -6 -276 116 -289 131 -4 4 -17 34 -29 66 -11 31 -34 84
-50 116 -17 32 -27 62 -23 66 7 8 238 -2 311 -13z m-846 -43 c63 -22 86 -39
52 -39 -19 0 -259 -91 -333 -126 -30 -13 -52 -21 -50 -17 69 151 102 197 152
218 32 14 29 14 179 -36z m480 3 c31 -31 110 -171 102 -180 -1 -1 -51 17 -111
41 -60 24 -148 59 -197 77 -48 18 -86 35 -84 37 13 13 179 62 212 62 35 1 47
-5 78 -37z m-275 -86 c34 -18 221 -206 205 -206 -7 0 -14 4 -18 9 -8 13 -259
111 -284 111 -23 0 -163 -55 -196 -77 -52 -35 -34 -5 44 71 124 122 164 137
249 92z m-240 -35 c-7 -11 -15 -18 -19 -15 -4 2 -68 -53 -141 -124 -128 -123
-253 -232 -265 -232 -3 0 1 8 10 18 8 9 35 66 60 126 l44 108 99 38 c108 40
160 65 169 79 3 6 12 8 19 5 8 -3 17 -1 21 5 3 6 8 11 11 11 2 0 -1 -9 -8 -19z
m507 -66 c66 -26 125 -52 131 -58 6 -7 26 -50 44 -97 19 -47 40 -95 48 -107
40 -63 -48 4 -215 163 -79 75 -149 146 -155 158 -10 20 -10 20 8 4 11 -9 73
-38 139 -63z m-232 -45 c175 -68 180 -71 289 -176 54 -51 111 -100 128 -109
29 -15 38 -29 23 -38 -5 -3 -7 -84 -7 -181 l2 -176 -42 -37 c-22 -20 -70 -64
-106 -97 -36 -34 -80 -73 -98 -88 -17 -15 -32 -31 -32 -36 0 -21 -168 -167
-218 -190 -54 -24 -54 -24 -95 -6 -40 18 -207 169 -207 187 0 15 -52 57 -63
50 -5 -3 -7 -1 -4 4 4 6 -44 59 -106 119 l-112 107 -6 181 -6 181 26 23 26 22
-31 -16 -30 -17 2 -206 1 -205 181 -186 c99 -102 179 -186 177 -188 -1 -2 -22
6 -46 17 -24 11 -86 38 -138 60 l-95 39 -66 158 c-37 88 -85 195 -107 238
l-40 80 44 85 c56 108 54 105 118 136 29 15 95 66 146 114 52 48 105 94 119
101 28 15 232 100 241 100 3 0 63 -22 132 -50z m-696 -161 c-78 -179 -121
-269 -128 -269 -19 0 -92 261 -77 275 7 7 253 122 256 120 1 -1 -22 -58 -51
-126z m1243 67 l125 -63 -3 -49 c-2 -44 -22 -119 -52 -198 -10 -28 -13 -24
-78 110 -37 77 -78 164 -92 194 -13 30 -26 58 -28 63 -6 11 -6 11 128 -57z
m-147 -154 c29 -21 61 -44 73 -50 12 -6 40 -49 64 -96 l43 -84 -46 -99 c-64
-139 -121 -270 -142 -325 -10 -26 -23 -51 -29 -56 -6 -4 -49 -23 -96 -42 -47
-18 -106 -44 -132 -57 -27 -13 -48 -19 -48 -14 0 6 6 14 14 18 7 4 89 81 182
170 l169 161 -1 213 0 213 -25 16 c-38 23 -95 70 -86 70 4 0 31 -17 60 -38z
m-1340 -35 c8 -23 31 -79 50 -123 l35 -82 -22 -48 c-13 -27 -38 -87 -56 -134
-18 -47 -37 -89 -41 -94 -22 -25 -152 124 -185 211 -10 27 -25 53 -33 59 -12
9 -8 19 22 59 73 95 191 210 206 200 5 -3 16 -24 24 -48z m1742 1 c32 -29 85
-86 117 -126 49 -62 56 -76 44 -86 -7 -6 -19 -29 -26 -51 -18 -56 -74 -138
-127 -185 -51 -45 -61 -48 -69 -22 -3 9 -29 74 -56 143 l-51 125 35 90 c20 49
41 106 49 127 7 20 16 37 19 37 3 0 32 -24 65 -52z m-1558 -398 c104 -230 113
-253 110 -256 -6 -6 -230 96 -246 111 -11 11 -11 25 -2 82 13 76 62 217 71
205 4 -4 34 -68 67 -142z m1396 60 c14 -42 29 -104 33 -138 l7 -62 -128 -60
c-70 -33 -128 -60 -130 -60 -2 0 35 84 82 188 47 103 87 195 90 205 8 26 17
12 46 -73z m52 -347 c0 -60 -10 -152 -20 -205 l-20 -97 -55 -7 c-30 -4 -111
-7 -180 -8 -150 -1 -144 -14 -68 163 l53 123 134 59 c74 32 139 63 145 69 5 5
11 10 12 10 0 0 0 -48 -1 -107z m-1444 23 l135 -57 56 -137 c49 -119 54 -138
40 -146 -16 -9 -273 -1 -330 10 -22 5 -31 13 -35 33 -43 223 -49 372 -13 358
6 -3 72 -30 147 -61z m1049 -182 c-49 -104 -82 -154 -103 -154 -12 0 -239 90
-249 99 -4 3 69 35 161 70 92 35 183 71 202 81 19 9 35 16 37 14 1 -1 -20 -50
-48 -110z m-566 -14 l98 -38 -53 -20 c-30 -11 -80 -32 -112 -46 -81 -36 -97
-34 -128 17 -22 34 -99 193 -99 202 0 2 44 -16 98 -38 53 -22 141 -57 196 -77z
m287 -125 c79 -36 143 -70 141 -76 -10 -38 -140 -158 -238 -219 l-30 -19 -70
46 c-66 44 -214 183 -214 201 0 5 60 36 133 70 72 34 132 61 133 62 0 0 65
-29 145 -65z"/>
<path d="M2949 3574 c-4 -11 -1 -54 6 -95 11 -63 13 -67 13 -29 0 68 -12 149
-19 124z"/>
<path d="M3097 3549 c-3 -11 -10 -18 -15 -15 -5 3 -12 -26 -16 -67 -4 -39 -10
-81 -13 -92 -4 -14 -2 -17 5 -10 6 6 12 28 13 50 1 22 7 45 12 52 5 7 5 18 1
24 -4 7 -3 9 3 6 6 -4 13 9 16 30 7 41 3 56 -6 22z"/>
<path d="M2817 3528 c-5 -14 83 -212 102 -231 7 -7 -2 22 -20 63 -17 41 -38
92 -47 113 -8 20 -19 37 -23 37 -5 0 -6 7 -3 15 4 8 4 15 1 15 -3 0 -7 -6 -10
-12z"/>
<path d="M2869 3518 c5 -13 9 -27 10 -33 4 -37 14 -75 18 -71 7 7 -17 115 -28
121 -5 4 -6 -3 0 -17z"/>
<path d="M3120 3505 c-7 -16 -13 -44 -13 -62 -1 -17 -4 -30 -7 -28 -3 2 -7 -5
-7 -16 -2 -27 4 -24 23 12 9 18 13 41 9 56 -4 16 -2 22 4 18 7 -4 8 1 4 12 -6
16 -5 17 13 3 10 -8 16 -10 12 -6 -4 5 -2 16 5 25 10 14 10 14 -5 3 -13 -10
-17 -10 -21 0 -3 8 -10 0 -17 -17z"/>
<path d="M2756 3508 c3 -5 10 -6 15 -3 5 4 9 -1 9 -11 0 -16 67 -134 76 -134
2 0 -14 35 -35 78 -24 47 -46 79 -55 79 -8 0 -13 -4 -10 -9z"/>
<path d="M3031 3455 l1 -50 9 39 c6 26 6 43 -1 50 -7 7 -10 -6 -9 -39z"/>
<path d="M3169 3427 c-55 -92 -39 -104 34 -27 31 33 57 63 57 67 0 4 -27 -22
-60 -57 -33 -36 -60 -60 -60 -54 0 6 9 19 20 29 33 30 80 112 64 112 -8 0 -32
-32 -55 -70z"/>
<path d="M2719 3446 c11 -15 18 -32 15 -37 -3 -5 0 -8 8 -7 7 2 12 -3 11 -9
-2 -7 2 -13 7 -13 17 0 11 14 -26 55 -20 22 -26 27 -15 11z"/>
<path d="M3260 3395 c-41 -41 -79 -75 -84 -75 -6 0 16 27 49 60 33 33 54 60
48 60 -12 0 -107 -104 -109 -120 -1 -6 -2 -15 -3 -21 0 -5 -6 -7 -13 -3 -7 5
-8 3 -3 -5 7 -12 30 4 91 66 12 12 24 20 26 18 2 -2 21 12 43 31 23 20 32 31
20 27 -20 -6 -20 -6 -1 15 40 45 8 19 -64 -53z"/>
<path d="M2757 3454 c-7 -7 36 -72 83 -124 l31 -35 -30 47 c-17 26 -36 50 -41
53 -6 4 -8 10 -5 15 3 5 -4 14 -15 20 -11 6 -18 15 -15 21 7 10 2 12 -8 3z"/>
<path d="M3310 3389 c-36 -27 -76 -61 -90 -75 -23 -24 78 51 139 103 46 40 18
23 -49 -28z"/>
<path d="M3301 3350 c-41 -33 -69 -60 -64 -60 6 0 16 7 23 15 7 8 30 25 51 37
31 17 80 68 66 68 -1 0 -36 -27 -76 -60z"/>
<path d="M3388 3371 c-2 -3 -20 -15 -40 -25 -21 -10 -61 -39 -89 -62 -49 -43
-77 -57 -63 -31 4 6 3 8 -1 4 -5 -4 -10 -14 -11 -22 -2 -11 16 -5 59 20 34 19
61 39 60 45 -2 5 6 10 18 10 13 0 18 4 13 12 -5 7 -2 9 8 5 9 -3 29 6 49 22
22 19 27 28 16 28 -9 0 -18 -3 -19 -6z"/>
<path d="M2650 3359 c0 -6 8 -9 17 -7 10 2 18 -3 18 -12 1 -8 6 -14 13 -12 7
1 12 -2 12 -8 0 -5 7 -10 16 -10 10 0 4 9 -17 27 -34 29 -59 38 -59 22z"/>
<path d="M3361 3299 c-51 -28 -91 -52 -89 -54 3 -4 174 80 187 91 2 2 2 6 0 8
-3 3 -46 -18 -98 -45z"/>
<path d="M2781 3313 c3 -19 -2 -25 -14 -14 -10 8 -14 7 -14 -4 0 -8 3 -13 5
-10 3 3 11 -3 19 -13 8 -9 12 -11 8 -4 -11 21 5 34 23 20 12 -9 11 -6 -2 10
-20 23 -27 27 -25 15z"/>
<path d="M3465 3309 c4 -6 1 -9 -6 -8 -14 3 -142 -51 -136 -57 7 -7 166 59
161 67 -3 5 -10 9 -15 9 -6 0 -7 -5 -4 -11z"/>
<path d="M3426 3264 c-26 -9 -46 -18 -43 -21 6 -5 107 25 107 33 0 6 -10 4
-64 -12z"/>
<path d="M2570 3200 c-12 -8 -11 -10 6 -10 12 0 37 -2 55 -5 l34 -5 -35 14
c-43 18 -42 18 -60 6z"/>
<path d="M2560 3170 c0 -4 19 -11 43 -14 55 -10 145 -16 131 -10 -22 10 -174
30 -174 24z"/>
<path d="M3380 3170 c-10 -6 -2 -8 28 -6 23 2 45 6 49 10 10 10 -60 7 -77 -4z"/>
<path d="M2500 3140 c-17 -6 -2 -8 49 -9 41 -1 72 1 70 3 -10 8 -96 13 -119 6z"/>
<path d="M3360 3140 c-44 -5 -34 -7 54 -8 60 -1 107 0 105 2 -9 8 -108 12
-159 6z"/>
<path d="M2490 3109 c14 -4 72 -7 130 -7 132 0 111 6 -40 11 -63 2 -104 0 -90
-4z"/>
<path d="M3373 3113 c26 -2 68 -2 95 0 26 2 4 3 -48 3 -52 0 -74 -1 -47 -3z"/>
<path d="M3345 3080 c86 -11 155 -11 130 0 -11 5 -58 8 -105 8 l-85 -1 60 -7z"/>
<path d="M3420 3046 c36 -8 67 -12 69 -10 11 10 -12 16 -71 20 l-63 4 65 -14z"/>
<path d="M2628 3028 c-21 -6 -38 -14 -38 -18 0 -7 31 1 90 23 27 10 -10 6 -52
-5z"/>
<path d="M2615 2994 c-22 -8 -44 -19 -49 -24 -5 -5 15 0 45 11 30 12 56 23 58
25 8 7 -14 3 -54 -12z"/>
<path d="M3322 3001 c-7 -4 14 -16 48 -29 36 -13 62 -17 65 -11 4 5 3 9 -2 8
-9 -2 -59 16 -84 30 -9 5 -21 6 -27 2z"/>
<path d="M3235 2993 c27 -27 141 -103 155 -103 9 0 5 6 -10 13 -14 8 -24 19
-23 25 2 6 -4 9 -11 6 -8 -3 -23 3 -33 13 -20 19 -96 63 -78 46z"/>
<path d="M2761 2933 c-27 -25 -47 -51 -44 -56 4 -6 0 -8 -9 -4 -10 3 -25 -5
-39 -20 -13 -15 -17 -22 -9 -17 8 4 21 9 28 10 17 3 42 24 39 33 -1 5 21 29
48 54 28 25 47 46 44 47 -4 0 -30 -21 -58 -47z"/>
<path d="M2683 2929 c-24 -17 -43 -32 -43 -35 0 -7 38 15 45 26 3 6 12 10 18
10 7 0 -1 -12 -17 -26 -15 -14 -27 -27 -25 -29 2 -1 22 13 44 34 22 20 36 33
31 29 -17 -14 -29 -8 -16 7 18 21 11 18 -37 -16z"/>
<path d="M3260 2942 c0 -15 56 -53 65 -44 5 4 5 2 1 -5 -3 -6 7 -21 24 -33 22
-16 28 -17 24 -6 -3 9 -12 16 -20 16 -8 0 -14 7 -14 15 0 9 -8 18 -17 22 -10
3 -28 15 -40 26 -13 11 -23 16 -23 9z"/>
<path d="M3100 2938 c0 -12 39 -98 45 -98 10 0 -2 36 -23 70 -12 19 -22 32
-22 28z"/>
<path d="M2744 2874 c-26 -31 -39 -51 -28 -44 18 11 89 100 81 100 -3 0 -26
-25 -53 -56z"/>
<path d="M2830 2834 c-27 -59 -39 -107 -24 -92 8 9 63 158 58 158 -3 0 -18
-30 -34 -66z"/>
<path d="M3165 2871 c9 -18 26 -47 37 -65 15 -24 18 -26 13 -7 -6 20 -47 87
-62 101 -3 3 2 -10 12 -29z"/>
<path d="M3013 2760 c0 -78 3 -99 10 -83 6 15 6 50 0 105 l-10 83 0 -105z"/>
<path d="M2889 2791 c-8 -27 -12 -57 -9 -66 4 -10 11 8 18 46 6 34 10 64 9 66
-2 1 -10 -19 -18 -46z"/>
<path d="M2979 2815 c-3 -58 -1 -96 4 -102 4 -3 7 21 7 55 0 34 -2 62 -5 62
-3 0 -5 -7 -6 -15z"/>
<path d="M2917 2785 c-4 -22 -9 -51 -12 -65 -3 -14 2 -7 10 15 9 22 14 51 13
65 -3 19 -5 16 -11 -15z"/>
<path d="M3127 2644 l-127 -55 -112 48 c-139 59 -139 59 -108 37 33 -25 196
-94 220 -94 22 0 218 84 246 105 28 21 21 19 -119 -41z"/>
</g>
</svg>
